HIERARCHY
ROOT __0
{
	OFFSET 0.0 0.0 0.0
	CHANNELS 0
	JOINT Stomach
	{
		OFFSET 0.000000 1.313661 -0.931607
		CHANNELS 6 Xposition Yposition Zposition Xrotation Yrotation Zrotation
		JOINT Neck
		{
			OFFSET 0.000000 0.000000 3.239985
			CHANNELS 3 Xrotation Yrotation Zrotation
			JOINT Bone.002
			{
				OFFSET 0.000000 0.115047 0.700247
				CHANNELS 3 Xrotation Yrotation Zrotation
				End Site
				{
					OFFSET 0.000000 -0.341516 2.737026
				}
			}
		}
	}
	JOINT Arm1.L
	{
		OFFSET 0.948005 1.565209 1.795413
		CHANNELS 6 Xposition Yposition Zposition Xrotation Yrotation Zrotation
		JOINT Arm2.L
		{
			OFFSET 2.196612 0.000000 0.061764
			CHANNELS 3 Xrotation Yrotation Zrotation
			JOINT Hand.L
			{
				OFFSET 1.896183 0.045114 0.000030
				CHANNELS 3 Xrotation Yrotation Zrotation
				End Site
				{
					OFFSET 1.519370 0.036319 0.024340
				}
			}
		}
	}
	JOINT Thigh.L
	{
		OFFSET 0.918578 1.158038 -2.637168
		CHANNELS 6 Xposition Yposition Zposition Xrotation Yrotation Zrotation
		JOINT Leg.L
		{
			OFFSET 0.303742 0.000007 -1.798965
			CHANNELS 3 Xrotation Yrotation Zrotation
			End Site
			{
				OFFSET 0.216846 -0.040642 -3.693563
			}
		}
	}
	JOINT HandBend.L
	{
		OFFSET 6.560170 1.646643 1.881547
		CHANNELS 6 Xposition Yposition Zposition Xrotation Yrotation Zrotation
		End Site
		{
			OFFSET 0.046851 1.599632 0.028243
		}
	}
	JOINT FootBend.L
	{
		OFFSET 1.439166 1.117403 -8.129697
		CHANNELS 6 Xposition Yposition Zposition Xrotation Yrotation Zrotation
		JOINT Foot.L
		{
			OFFSET 0.000000 0.000000 0.000000
			CHANNELS 6 Xposition Yposition Zposition Xrotation Yrotation Zrotation
			End Site
			{
				OFFSET -0.014419 -2.154903 -0.745453
			}
		}
	}
	JOINT LegBend.L
	{
		OFFSET 1.285312 -2.920481 -7.605664
		CHANNELS 6 Xposition Yposition Zposition Xrotation Yrotation Zrotation
		End Site
		{
			OFFSET 0.004998 -0.017189 1.600040
		}
	}
	JOINT ArmBend.L
	{
		OFFSET 3.418412 -2.827438 -0.450937
		CHANNELS 6 Xposition Yposition Zposition Xrotation Yrotation Zrotation
		End Site
		{
			OFFSET 0.000000 0.000000 1.000000
		}
	}
	JOINT Arm1.R.001
	{
		OFFSET -0.948005 1.565209 1.795413
		CHANNELS 6 Xposition Yposition Zposition Xrotation Yrotation Zrotation
		JOINT Arm2.R.001
		{
			OFFSET -2.196612 0.000000 0.061764
			CHANNELS 3 Xrotation Yrotation Zrotation
			JOINT Hand.R.001
			{
				OFFSET -1.896183 0.045114 0.000031
				CHANNELS 3 Xrotation Yrotation Zrotation
				End Site
				{
					OFFSET -1.519370 0.036319 0.024340
				}
			}
		}
	}
	JOINT Thigh.R.001
	{
		OFFSET -0.918578 1.158038 -2.637168
		CHANNELS 6 Xposition Yposition Zposition Xrotation Yrotation Zrotation
		JOINT Leg.R.001
		{
			OFFSET -0.303742 0.000007 -1.798965
			CHANNELS 3 Xrotation Yrotation Zrotation
			End Site
			{
				OFFSET -0.216846 -0.040642 -3.693563
			}
		}
	}
	JOINT HandBend.R.001
	{
		OFFSET -6.560170 1.646643 1.881547
		CHANNELS 6 Xposition Yposition Zposition Xrotation Yrotation Zrotation
		End Site
		{
			OFFSET -0.046851 1.599632 0.028243
		}
	}
	JOINT FootBend.R.001
	{
		OFFSET -1.439166 1.117403 -8.129697
		CHANNELS 6 Xposition Yposition Zposition Xrotation Yrotation Zrotation
		JOINT Foot.R.001
		{
			OFFSET 0.000000 0.000000 0.000000
			CHANNELS 6 Xposition Yposition Zposition Xrotation Yrotation Zrotation
			End Site
			{
				OFFSET 0.014419 -2.154903 -0.745453
			}
		}
	}
	JOINT LegBend.R.001
	{
		OFFSET -1.285312 -2.920481 -7.605664
		CHANNELS 6 Xposition Yposition Zposition Xrotation Yrotation Zrotation
		End Site
		{
			OFFSET -0.004998 -0.017189 1.600040
		}
	}
	JOINT ArmBend.R.001
	{
		OFFSET -3.418412 -2.827438 -0.450937
		CHANNELS 6 Xposition Yposition Zposition Xrotation Yrotation Zrotation
		End Site
		{
			OFFSET 0.000000 0.000000 1.000000
		}
	}
}
MOTION
Frames: 9
Frame Time: 0.041667
0.000000 1.313661 -0.931607 -0.000000 0.000000 -0.000000 0.000001 0.000000 -0.000002 0.000001 -0.000000 0.000000 0.948005 1.565210 1.795413 7.894242 0.121123 0.110916 -0.000078 0.002571 0.002709 -0.000007 -0.000512 0.001217 0.918578 1.158038 -2.637169 4.720845 -5.974519 -90.947275 -0.042363 0.424091 -0.007000 6.560171 1.646643 1.881547 -0.000000 0.000000 -0.000000 1.439166 1.117403 -8.128668 -0.000000 0.000000 -0.000000 -0.000000 -0.000000 -0.000000 -0.000001 0.000000 -0.000000 1.285312 -2.920481 -7.605664 -0.000000 0.000000 0.000000 3.305573 -1.723560 1.370734 -0.000000 0.000000 -0.000000 -0.948005 1.565209 1.795413 164.256337 4.359635 2.802841 0.020368 1.064656 0.997053 -0.005307 -0.433118 0.223057 -0.918578 1.158038 -2.637168 -5.843991 4.830561 -88.056452 -0.000132 -0.001302 0.000026 -6.649084 1.662958 1.169287 0.000000 0.000000 0.000000 -1.439167 1.117403 -8.129696 0.000000 0.000000 0.000000 -0.000000 -0.000000 0.000002 0.000001 -0.000000 0.000000 -1.285312 -2.920481 -7.605663 0.000000 0.000000 0.000000 -3.418412 8.583260 -0.450937 -0.000000 0.000000 -0.000000 
0.000000 1.313661 -0.931607 -0.000000 0.000000 -0.000000 0.000001 0.000000 -0.000002 0.000001 -0.000000 0.000000 0.948005 1.565210 1.795413 7.894242 0.121123 0.110916 -0.000078 0.002571 0.002709 -0.000007 -0.000512 0.001217 0.918578 1.158038 -2.637169 4.720845 -5.974519 -90.947275 -0.042363 0.424091 -0.007000 6.560171 1.646643 1.881547 -0.000000 0.000000 -0.000000 1.439166 1.117403 -8.128668 -0.000000 0.000000 -0.000000 -0.000000 -0.000000 -0.000000 -0.000001 0.000000 -0.000000 1.285312 -2.920481 -7.605664 -0.000000 0.000000 0.000000 3.305573 -1.723560 1.370734 -0.000000 0.000000 -0.000000 -0.948005 1.565210 1.795413 164.155797 4.071111 2.685401 0.020366 1.064682 0.997095 -0.005301 -0.433096 0.223089 -0.918578 1.158038 -2.637168 -5.843991 4.830561 -88.056452 -0.000132 -0.001302 0.000026 -6.624237 1.657946 1.202834 0.000000 0.000000 0.000000 -1.439167 1.117403 -8.129696 0.000000 0.000000 0.000000 -0.000000 -0.000000 0.000002 0.000001 -0.000000 0.000000 -1.285312 -2.920481 -7.605663 0.000000 0.000000 0.000000 -3.418412 8.583260 -0.450937 -0.000000 0.000000 -0.000000 
0.000000 1.313661 -0.931607 -0.000000 0.000000 -0.000000 0.000001 0.000000 -0.000002 0.000001 -0.000000 0.000000 0.948005 1.565210 1.795413 7.894242 0.121123 0.110916 -0.000078 0.002571 0.002709 -0.000007 -0.000512 0.001217 0.918578 1.158038 -2.637169 4.720845 -5.974519 -90.947275 -0.042363 0.424091 -0.007000 6.560171 1.646643 1.881547 -0.000000 0.000000 -0.000000 1.439166 1.117403 -8.128668 -0.000000 0.000000 -0.000000 -0.000000 -0.000000 -0.000000 -0.000001 0.000000 -0.000000 1.285312 -2.920481 -7.605664 -0.000000 0.000000 0.000000 3.305573 -1.723560 1.370734 -0.000000 0.000000 -0.000000 -0.948005 1.565210 1.795413 163.985807 3.582909 2.482703 0.020371 1.064726 0.997165 -0.005297 -0.433056 0.223143 -0.918578 1.158038 -2.637168 -5.843991 4.830561 -88.056452 -0.000132 -0.001302 0.000026 -6.582625 1.649456 1.259010 0.000000 0.000000 0.000000 -1.439167 1.117403 -8.129696 0.000000 0.000000 0.000000 -0.000000 -0.000000 0.000002 0.000001 -0.000000 0.000000 -1.285312 -2.920481 -7.605663 0.000000 0.000000 0.000000 -3.418412 8.583260 -0.450937 -0.000000 0.000000 -0.000000 
0.000000 1.313661 -0.931607 -0.000000 0.000000 -0.000000 0.000001 0.000000 -0.000002 0.000001 -0.000000 0.000000 0.948005 1.565210 1.795413 7.894242 0.121123 0.110916 -0.000078 0.002571 0.002709 -0.000007 -0.000512 0.001217 0.918578 1.158038 -2.637169 4.720845 -5.974519 -90.947275 -0.042363 0.424091 -0.007000 6.560171 1.646643 1.881547 -0.000000 0.000000 -0.000000 1.439166 1.117403 -8.128668 -0.000000 0.000000 -0.000000 -0.000000 -0.000000 -0.000000 -0.000001 0.000000 -0.000000 1.285312 -2.920481 -7.605664 -0.000000 0.000000 0.000000 3.305573 -1.723560 1.370734 -0.000000 0.000000 -0.000000 -0.948005 1.565209 1.795413 163.626225 5.869550 6.639384 -0.311721 -3.802705 -4.714063 -0.087965 -0.480712 -3.373487 -0.918578 1.158038 -2.637168 -5.843991 4.830561 -88.056452 -0.000132 -0.001302 0.000026 -6.524240 1.637395 1.337822 0.000000 0.000000 0.000000 -1.439167 1.117403 -8.129696 0.000000 0.000000 0.000000 -0.000000 -0.000000 0.000002 0.000001 -0.000000 0.000000 -1.285312 -2.920481 -7.605663 0.000000 0.000000 0.000000 -3.418412 8.583260 -0.450937 -0.000000 0.000000 -0.000000 
0.000000 1.313661 -0.931607 -0.000000 0.000000 -0.000000 0.000001 0.000000 -0.000002 0.000001 -0.000000 0.000000 0.948005 1.565210 1.795413 7.894242 0.121123 0.110916 -0.000078 0.002571 0.002709 -0.000007 -0.000512 0.001217 0.918578 1.158038 -2.637169 4.720845 -5.974519 -90.947275 -0.042363 0.424091 -0.007000 6.560171 1.646643 1.881547 -0.000000 0.000000 -0.000000 1.439166 1.117403 -8.128668 -0.000000 0.000000 -0.000000 -0.000000 -0.000000 -0.000000 -0.000001 0.000000 -0.000000 1.285312 -2.920481 -7.605664 -0.000000 0.000000 0.000000 3.305573 -1.723560 1.370734 -0.000000 0.000000 -0.000000 -0.948005 1.565209 1.795413 162.862009 8.572864 12.358533 -1.337622 -8.624905 -11.866297 -0.531203 -2.825243 -9.962431 -0.918578 1.158038 -2.637168 -5.843991 4.830561 -88.056452 -0.000132 -0.001302 0.000026 -6.449241 1.621691 1.439048 0.000000 0.000000 0.000000 -1.439167 1.117403 -8.129696 0.000000 0.000000 0.000000 -0.000000 -0.000000 0.000002 0.000001 -0.000000 0.000000 -1.285312 -2.920481 -7.605663 0.000000 0.000000 0.000000 -3.418412 8.583260 -0.450937 -0.000000 0.000000 -0.000000 
0.000000 1.313661 -0.931607 -0.000000 0.000000 -0.000000 0.000001 0.000000 -0.000002 0.000001 -0.000000 0.000000 0.948005 1.565210 1.795413 7.894242 0.121123 0.110916 -0.000078 0.002571 0.002709 -0.000007 -0.000512 0.001217 0.918578 1.158038 -2.637169 4.720845 -5.974519 -90.947275 -0.042363 0.424091 -0.007000 6.560171 1.646643 1.881547 -0.000000 0.000000 -0.000000 1.439166 1.117403 -8.128668 -0.000000 0.000000 -0.000000 -0.000000 -0.000000 -0.000000 -0.000001 0.000000 -0.000000 1.285312 -2.920481 -7.605664 -0.000000 0.000000 0.000000 3.305573 -1.723560 1.370734 -0.000000 0.000000 -0.000000 -0.948005 1.565209 1.795413 161.994711 9.876827 16.152113 -2.400214 -11.655156 -16.877157 -1.090405 -4.773669 -14.866206 -0.918578 1.158038 -2.637168 -5.843991 4.830561 -88.056452 -0.000132 -0.001302 0.000026 -6.357987 1.602299 1.562196 0.000000 0.000000 0.000000 -1.439167 1.117403 -8.129696 0.000000 0.000000 0.000000 -0.000000 -0.000000 0.000002 0.000001 -0.000000 0.000000 -1.285312 -2.920481 -7.605663 0.000000 0.000000 0.000000 -3.418412 8.583260 -0.450937 -0.000000 0.000000 -0.000000 
0.000000 1.313661 -0.931607 -0.000000 0.000000 -0.000000 0.000001 0.000000 -0.000002 0.000001 -0.000000 0.000000 0.948005 1.565210 1.795413 7.894242 0.121123 0.110916 -0.000078 0.002571 0.002709 -0.000007 -0.000512 0.001217 0.918578 1.158038 -2.637169 4.720845 -5.974519 -90.947275 -0.042363 0.424091 -0.007000 6.560171 1.646643 1.881547 -0.000000 0.000000 -0.000000 1.439166 1.117403 -8.128668 -0.000000 0.000000 -0.000000 -0.000000 -0.000000 -0.000000 -0.000001 0.000000 -0.000000 1.285312 -2.920481 -7.605664 -0.000000 0.000000 0.000000 3.305573 -1.723560 1.370734 -0.000000 0.000000 -0.000000 -0.948005 1.565210 1.795413 161.038976 10.574840 19.235624 -3.540855 -14.109640 -21.275479 -1.754134 -6.543723 -19.247314 -0.918578 1.158038 -2.637168 -5.843991 4.830561 -88.056452 -0.000132 -0.001302 0.000026 -6.251072 1.579208 1.706459 0.000000 0.000000 0.000000 -1.439167 1.117403 -8.129696 0.000000 0.000000 0.000000 -0.000000 -0.000000 0.000002 0.000001 -0.000000 0.000000 -1.285312 -2.920481 -7.605663 0.000000 0.000000 0.000000 -3.418412 8.583260 -0.450937 -0.000000 0.000000 -0.000000 
0.000000 1.313661 -0.931607 -0.000000 0.000000 -0.000000 0.000001 0.000000 -0.000002 0.000001 -0.000000 0.000000 0.948005 1.565210 1.795413 7.894242 0.121123 0.110916 -0.000078 0.002571 0.002709 -0.000007 -0.000512 0.001217 0.918578 1.158038 -2.637169 4.720845 -5.974519 -90.947275 -0.042363 0.424091 -0.007000 6.560171 1.646643 1.881547 -0.000000 0.000000 -0.000000 1.439166 1.117403 -8.128668 -0.000000 0.000000 -0.000000 -0.000000 -0.000000 -0.000000 -0.000001 0.000000 -0.000000 1.285312 -2.920481 -7.605664 -0.000000 0.000000 0.000000 3.305573 -1.723560 1.370734 -0.000000 0.000000 -0.000000 -0.948005 1.565210 1.795413 160.022016 10.806421 21.797012 -4.748688 -16.208006 -25.329985 -2.504366 -8.171323 -23.312380 -0.918578 1.158038 -2.637168 -5.843991 4.830561 -88.056452 -0.000132 -0.001302 0.000026 -6.129347 1.552451 1.870679 0.000000 0.000000 0.000000 -1.439167 1.117403 -8.129696 0.000000 0.000000 0.000000 -0.000000 -0.000000 0.000002 0.000001 -0.000000 0.000000 -1.285312 -2.920481 -7.605663 0.000000 0.000000 0.000000 -3.418412 8.583260 -0.450937 -0.000000 0.000000 -0.000000 
0.000000 1.313661 -0.931607 -0.000000 0.000000 -0.000000 0.000001 0.000000 -0.000002 0.000001 -0.000000 0.000000 0.948005 1.565210 1.795413 7.894242 0.121123 0.110916 -0.000078 0.002571 0.002709 -0.000007 -0.000512 0.001217 0.918578 1.158038 -2.637169 4.720845 -5.974519 -90.947275 -0.042363 0.424091 -0.007000 6.560171 1.646643 1.881547 -0.000000 0.000000 -0.000000 1.439166 1.117403 -8.128668 -0.000000 0.000000 -0.000000 -0.000000 -0.000000 -0.000000 -0.000001 0.000000 -0.000000 1.285312 -2.920481 -7.605664 -0.000000 0.000000 0.000000 3.305573 -1.723560 1.370734 -0.000000 0.000000 -0.000000 -0.948005 1.565210 1.795413 158.974279 10.621754 23.876622 -6.003272 -18.029714 -29.125248 -3.322219 -9.666157 -27.127266 -0.918578 1.158038 -2.637168 -5.843991 4.830561 -88.056452 -0.000132 -0.001302 0.000026 -5.993943 1.522103 2.053318 0.000000 0.000000 0.000000 -1.439167 1.117403 -8.129696 0.000000 0.000000 0.000000 -0.000000 -0.000000 0.000002 0.000001 -0.000000 0.000000 -1.285312 -2.920481 -7.605663 0.000000 0.000000 0.000000 -3.418412 8.583260 -0.450937 -0.000000 0.000000 -0.000000 
